<mxfile host="app.diagrams.net" agent="Mozilla/5.0 (Macintosh; Intel Mac OS X 10.15; rv:134.0) Gecko/20100101 Firefox/134.0" version="26.0.8">
  <diagram name="Page-1" id="8LcMCE8wlRJ1GtdJvFQN">
    <mxGraphModel dx="713" dy="887" grid="1" gridSize="10" guides="1" tooltips="1" connect="1" arrows="1" fold="1" page="1" pageScale="1" pageWidth="850" pageHeight="1100" math="0" shadow="0">
      <root>
        <mxCell id="0" />
        <mxCell id="1" parent="0" />
        <mxCell id="PzeAbkxdxoDdq9mpMcYx-40" style="edgeStyle=orthogonalEdgeStyle;rounded=0;orthogonalLoop=1;jettySize=auto;html=1;entryX=0.5;entryY=0;entryDx=0;entryDy=0;" edge="1" parent="1" source="PzeAbkxdxoDdq9mpMcYx-1" target="PzeAbkxdxoDdq9mpMcYx-22">
          <mxGeometry relative="1" as="geometry" />
        </mxCell>
        <mxCell id="PzeAbkxdxoDdq9mpMcYx-41" style="edgeStyle=orthogonalEdgeStyle;rounded=0;orthogonalLoop=1;jettySize=auto;html=1;" edge="1" parent="1" source="PzeAbkxdxoDdq9mpMcYx-1">
          <mxGeometry relative="1" as="geometry">
            <mxPoint x="422.5" y="340" as="targetPoint" />
          </mxGeometry>
        </mxCell>
        <mxCell id="PzeAbkxdxoDdq9mpMcYx-42" style="edgeStyle=orthogonalEdgeStyle;rounded=0;orthogonalLoop=1;jettySize=auto;html=1;entryX=0.5;entryY=0;entryDx=0;entryDy=0;" edge="1" parent="1" source="PzeAbkxdxoDdq9mpMcYx-1" target="PzeAbkxdxoDdq9mpMcYx-35">
          <mxGeometry relative="1" as="geometry" />
        </mxCell>
        <mxCell id="PzeAbkxdxoDdq9mpMcYx-1" value="Project Manager" style="rounded=1;whiteSpace=wrap;html=1;" vertex="1" parent="1">
          <mxGeometry x="350" y="180" width="145" height="80" as="geometry" />
        </mxCell>
        <mxCell id="PzeAbkxdxoDdq9mpMcYx-23" value="" style="group" vertex="1" connectable="0" parent="1">
          <mxGeometry x="100" y="340" width="200" height="250" as="geometry" />
        </mxCell>
        <mxCell id="PzeAbkxdxoDdq9mpMcYx-19" value="" style="group" vertex="1" connectable="0" parent="PzeAbkxdxoDdq9mpMcYx-23">
          <mxGeometry x="30" y="40" width="140" height="190" as="geometry" />
        </mxCell>
        <mxCell id="PzeAbkxdxoDdq9mpMcYx-2" value="Public Lead" style="rounded=1;whiteSpace=wrap;html=1;" vertex="1" parent="PzeAbkxdxoDdq9mpMcYx-19">
          <mxGeometry width="140" height="80" as="geometry" />
        </mxCell>
        <mxCell id="PzeAbkxdxoDdq9mpMcYx-5" value="Public Float" style="rounded=1;whiteSpace=wrap;html=1;" vertex="1" parent="PzeAbkxdxoDdq9mpMcYx-19">
          <mxGeometry y="110" width="140" height="80" as="geometry" />
        </mxCell>
        <mxCell id="PzeAbkxdxoDdq9mpMcYx-9" value="" style="edgeStyle=orthogonalEdgeStyle;rounded=0;orthogonalLoop=1;jettySize=auto;html=1;" edge="1" parent="PzeAbkxdxoDdq9mpMcYx-19" source="PzeAbkxdxoDdq9mpMcYx-2" target="PzeAbkxdxoDdq9mpMcYx-5">
          <mxGeometry relative="1" as="geometry" />
        </mxCell>
        <mxCell id="PzeAbkxdxoDdq9mpMcYx-22" value="Public" style="swimlane;" vertex="1" parent="PzeAbkxdxoDdq9mpMcYx-23">
          <mxGeometry width="200" height="250" as="geometry" />
        </mxCell>
        <mxCell id="PzeAbkxdxoDdq9mpMcYx-24" value="" style="group" vertex="1" connectable="0" parent="1">
          <mxGeometry x="325" y="340" width="200" height="250" as="geometry" />
        </mxCell>
        <mxCell id="PzeAbkxdxoDdq9mpMcYx-37" value="" style="group" vertex="1" connectable="0" parent="PzeAbkxdxoDdq9mpMcYx-24">
          <mxGeometry width="200" height="250" as="geometry" />
        </mxCell>
        <mxCell id="PzeAbkxdxoDdq9mpMcYx-25" value="" style="group" vertex="1" connectable="0" parent="PzeAbkxdxoDdq9mpMcYx-37">
          <mxGeometry x="30" y="40" width="140" height="190" as="geometry" />
        </mxCell>
        <mxCell id="PzeAbkxdxoDdq9mpMcYx-26" value="User Lead" style="rounded=1;whiteSpace=wrap;html=1;" vertex="1" parent="PzeAbkxdxoDdq9mpMcYx-25">
          <mxGeometry width="140" height="80" as="geometry" />
        </mxCell>
        <mxCell id="PzeAbkxdxoDdq9mpMcYx-27" value="User Float" style="rounded=1;whiteSpace=wrap;html=1;" vertex="1" parent="PzeAbkxdxoDdq9mpMcYx-25">
          <mxGeometry y="110" width="140" height="80" as="geometry" />
        </mxCell>
        <mxCell id="PzeAbkxdxoDdq9mpMcYx-28" value="" style="edgeStyle=orthogonalEdgeStyle;rounded=0;orthogonalLoop=1;jettySize=auto;html=1;" edge="1" parent="PzeAbkxdxoDdq9mpMcYx-25" source="PzeAbkxdxoDdq9mpMcYx-26" target="PzeAbkxdxoDdq9mpMcYx-27">
          <mxGeometry relative="1" as="geometry" />
        </mxCell>
        <mxCell id="PzeAbkxdxoDdq9mpMcYx-29" value="User" style="swimlane;" vertex="1" parent="PzeAbkxdxoDdq9mpMcYx-37">
          <mxGeometry width="200" height="250" as="geometry">
            <mxRectangle width="70" height="30" as="alternateBounds" />
          </mxGeometry>
        </mxCell>
        <mxCell id="PzeAbkxdxoDdq9mpMcYx-30" value="" style="group" vertex="1" connectable="0" parent="1">
          <mxGeometry x="550" y="340" width="200" height="250" as="geometry" />
        </mxCell>
        <mxCell id="PzeAbkxdxoDdq9mpMcYx-36" value="" style="group" vertex="1" connectable="0" parent="PzeAbkxdxoDdq9mpMcYx-30">
          <mxGeometry width="200" height="250" as="geometry" />
        </mxCell>
        <mxCell id="PzeAbkxdxoDdq9mpMcYx-31" value="" style="group" vertex="1" connectable="0" parent="PzeAbkxdxoDdq9mpMcYx-36">
          <mxGeometry x="30" y="40" width="140" height="190" as="geometry" />
        </mxCell>
        <mxCell id="PzeAbkxdxoDdq9mpMcYx-32" value="Internal Lead" style="rounded=1;whiteSpace=wrap;html=1;" vertex="1" parent="PzeAbkxdxoDdq9mpMcYx-31">
          <mxGeometry width="140" height="80" as="geometry" />
        </mxCell>
        <mxCell id="PzeAbkxdxoDdq9mpMcYx-33" value="Internal Float" style="rounded=1;whiteSpace=wrap;html=1;" vertex="1" parent="PzeAbkxdxoDdq9mpMcYx-31">
          <mxGeometry y="110" width="140" height="80" as="geometry" />
        </mxCell>
        <mxCell id="PzeAbkxdxoDdq9mpMcYx-34" value="" style="edgeStyle=orthogonalEdgeStyle;rounded=0;orthogonalLoop=1;jettySize=auto;html=1;" edge="1" parent="PzeAbkxdxoDdq9mpMcYx-31" source="PzeAbkxdxoDdq9mpMcYx-32" target="PzeAbkxdxoDdq9mpMcYx-33">
          <mxGeometry relative="1" as="geometry" />
        </mxCell>
        <mxCell id="PzeAbkxdxoDdq9mpMcYx-35" value="Internal" style="swimlane;" vertex="1" parent="PzeAbkxdxoDdq9mpMcYx-36">
          <mxGeometry width="200" height="250" as="geometry">
            <mxRectangle width="80" height="30" as="alternateBounds" />
          </mxGeometry>
        </mxCell>
        <mxCell id="PzeAbkxdxoDdq9mpMcYx-39" value="Palo Alto/ Firewall Engineer" style="rounded=1;whiteSpace=wrap;html=1;" vertex="1" parent="1">
          <mxGeometry x="580" y="110" width="140" height="80" as="geometry" />
        </mxCell>
      </root>
    </mxGraphModel>
  </diagram>
</mxfile>
